<svg version="1.1" id="Layer_1" xmlns="http://www.w3.org/2000/svg" xmlns:xlink="http://www.w3.org/1999/xlink" x="0px" y="0px"
	 width="100%" viewBox="0 0 269 269" enable-background="new 0 0 269 269" xml:space="preserve">
<path fill="#000000" opacity="1.000000" stroke="none" 
	d="
M153.000000,270.000000 
	C102.000008,270.000000 51.500011,270.000000 1.000014,270.000000 
	C1.000009,180.333344 1.000009,90.666702 1.000005,1.000038 
	C90.666634,1.000025 180.333267,1.000025 269.999939,1.000013 
	C269.999939,90.666626 269.999939,180.333252 269.999969,269.999939 
	C231.166672,270.000000 192.333328,270.000000 153.000000,270.000000 
M106.794998,67.796379 
	C106.794998,67.796379 106.480087,67.510612 106.707985,66.821129 
	C108.444427,59.982002 111.236916,53.213467 111.699753,46.289211 
	C112.695244,31.396448 106.184204,19.418026 94.235626,9.404737 
	C90.777573,15.889152 87.009621,21.857786 84.310486,28.275911 
	C80.369896,37.645992 81.221703,47.357849 83.708389,57.293304 
	C83.708389,57.293304 83.377998,57.666119 82.871368,57.228821 
	C73.157555,45.734776 55.818359,44.690948 43.170090,52.218960 
	C33.001801,58.270935 24.634979,66.171776 17.281662,75.271164 
	C14.579992,78.614357 12.144602,82.172729 9.587751,85.632950 
	C12.301900,85.855408 13.992515,85.256302 15.733500,84.911591 
	C27.155733,82.650032 36.786247,87.245964 46.234074,92.792984 
	C50.194008,95.117950 54.237823,97.642776 58.583878,98.901581 
	C70.488182,102.349579 80.656219,97.487061 90.299500,91.092369 
	C92.002869,89.962830 93.647041,88.744034 96.076202,87.032677 
	C95.980240,88.997597 96.149200,89.868553 95.872528,90.561577 
	C90.711258,103.489540 90.151505,117.126289 90.093788,130.731903 
	C89.915665,172.725922 90.025993,214.721176 90.024307,256.715942 
	C90.024239,258.337158 90.024300,259.958374 90.024300,261.778809 
	C111.035896,261.778809 131.609100,261.778809 152.014343,261.778809 
	C152.281860,261.420410 152.468155,261.287384 152.468979,261.153259 
	C152.639404,233.338898 152.817398,205.524536 152.915558,177.709900 
	C152.923462,175.468826 152.026703,175.123703 149.430649,175.634323 
	C142.478058,177.001892 135.355881,177.507263 127.558983,178.444336 
	C131.839600,164.928680 139.453369,155.448181 150.825333,148.881500 
	C151.507675,148.487488 151.693665,147.233902 152.375870,145.837189 
	C138.553406,149.533463 130.357437,158.041718 125.137527,171.063232 
	C124.025688,101.992294 170.467056,82.474380 217.220367,90.642365 
	C216.504547,96.845154 216.078064,103.129707 215.015640,109.304848 
	C210.065704,138.075867 195.553757,159.463867 167.441986,170.198532 
	C160.223511,172.954941 160.298569,173.005783 160.425140,181.122787 
	C160.518661,187.120575 160.425934,193.121109 160.455704,199.120209 
	C160.464508,200.896255 160.607590,202.671631 160.701477,204.715591 
	C164.018463,204.881088 166.842911,204.896927 169.640076,205.181046 
	C196.039200,207.862625 218.628510,199.240646 236.645370,180.371872 
	C262.936981,152.837036 268.636658,120.796768 254.254288,85.413422 
	C246.943222,67.426788 233.631470,54.413277 217.188873,45.295170 
	C202.165726,36.964203 185.471130,34.352894 167.964844,35.787563 
	C152.158569,37.082909 137.879532,41.761902 125.346344,51.110741 
	C118.723251,56.051086 113.144142,62.390999 106.794998,67.796379 
z"/>
<path fill="#FDFDFD" opacity="1.000000" stroke="none" 
	d="
M84.062500,56.942940 
	C81.221703,47.357849 80.369896,37.645992 84.310486,28.275911 
	C87.009621,21.857786 90.777573,15.889152 94.235626,9.404737 
	C106.184204,19.418026 112.695244,31.396448 111.699753,46.289211 
	C111.236916,53.213467 108.444427,59.982002 106.471512,67.365372 
	C106.334297,68.179626 106.433563,68.449646 106.532822,68.719658 
	C106.719788,68.512787 106.906746,68.305916 107.093704,68.099037 
	C113.144142,62.390999 118.723251,56.051086 125.346344,51.110741 
	C137.879532,41.761902 152.158569,37.082909 167.964844,35.787563 
	C185.471130,34.352894 202.165726,36.964203 217.188873,45.295170 
	C233.631470,54.413277 246.943222,67.426788 254.254288,85.413422 
	C268.636658,120.796768 262.936981,152.837036 236.645370,180.371872 
	C218.628510,199.240646 196.039200,207.862625 169.640076,205.181046 
	C166.842911,204.896927 164.018463,204.881088 160.701477,204.715591 
	C160.607590,202.671631 160.464508,200.896255 160.455704,199.120209 
	C160.425934,193.121109 160.518661,187.120575 160.425140,181.122787 
	C160.298569,173.005783 160.223511,172.954941 167.441986,170.198532 
	C195.553757,159.463867 210.065704,138.075867 215.015640,109.304848 
	C216.078064,103.129707 216.504547,96.845154 217.220367,90.642365 
	C170.467056,82.474380 124.025688,101.992294 125.137527,171.063232 
	C130.357437,158.041718 138.553406,149.533463 152.375870,145.837189 
	C151.693665,147.233902 151.507675,148.487488 150.825333,148.881500 
	C139.453369,155.448181 131.839600,164.928680 127.558983,178.444336 
	C135.355881,177.507263 142.478058,177.001892 149.430649,175.634323 
	C152.026703,175.123703 152.923462,175.468826 152.915558,177.709900 
	C152.817398,205.524536 152.639404,233.338898 152.468979,261.153259 
	C152.468155,261.287384 152.281860,261.420410 152.014343,261.778809 
	C131.609100,261.778809 111.035896,261.778809 90.024300,261.778809 
	C90.024300,259.958374 90.024239,258.337158 90.024307,256.715942 
	C90.025993,214.721176 89.915665,172.725922 90.093788,130.731903 
	C90.151505,117.126289 90.711258,103.489540 95.872528,90.561577 
	C96.149200,89.868553 95.980240,88.997597 96.076202,87.032677 
	C93.647041,88.744034 92.002869,89.962830 90.299500,91.092369 
	C80.656219,97.487061 70.488182,102.349579 58.583878,98.901581 
	C54.237823,97.642776 50.194008,95.117950 46.234074,92.792984 
	C36.786247,87.245964 27.155733,82.650032 15.733500,84.911591 
	C13.992515,85.256302 12.301900,85.855408 9.587751,85.632950 
	C12.144602,82.172729 14.579992,78.614357 17.281662,75.271164 
	C24.634979,66.171776 33.001801,58.270935 43.170090,52.218960 
	C55.818359,44.690948 73.157555,45.734776 83.321556,57.677876 
	C84.118767,58.304787 84.465797,58.482647 84.812820,58.660503 
	C84.562714,58.087982 84.312607,57.515461 84.062500,56.942940 
M96.567345,72.071854 
	C95.630699,71.420471 94.694046,70.769081 93.578087,69.992996 
	C93.573074,74.914452 99.738251,77.707092 96.506523,82.834671 
	C96.864311,83.099121 97.222107,83.363571 97.579895,83.628021 
	C99.463837,80.839287 101.347771,78.050552 103.325089,75.123596 
	C100.909401,74.133301 98.990410,73.346626 96.567345,72.071854 
z"/>
<path fill="#0F0F0F" opacity="1.000000" stroke="none" 
	d="
M96.819382,72.315903 
	C98.990410,73.346626 100.909401,74.133301 103.325089,75.123596 
	C101.347771,78.050552 99.463837,80.839287 97.579895,83.628021 
	C97.222107,83.363571 96.864311,83.099121 96.506523,82.834671 
	C99.738251,77.707092 93.573074,74.914452 93.578087,69.992996 
	C94.694046,70.769081 95.630699,71.420471 96.819382,72.315903 
z"/>
<path fill="#000000" opacity="1.000000" stroke="none" 
	d="
M83.885445,57.118122 
	C84.312607,57.515461 84.562714,58.087982 84.812820,58.660503 
	C84.465797,58.482647 84.118767,58.304787 83.574875,57.896523 
	C83.377998,57.666119 83.708389,57.293304 83.885445,57.118122 
z"/>
<path fill="#000000" opacity="1.000000" stroke="none" 
	d="
M106.944351,67.947708 
	C106.906746,68.305916 106.719788,68.512787 106.532822,68.719658 
	C106.433563,68.449646 106.334297,68.179626 106.357559,67.710114 
	C106.480087,67.510612 106.794998,67.796379 106.944351,67.947708 
z"/>
</svg>